<svg id="Layer_1" data-name="Layer 1" xmlns="http://www.w3.org/2000/svg" viewBox="0 0 273 61"><defs><style>.cls-1{font-size:20.77px;stroke:#8cc63f;stroke-linecap:round;stroke-linejoin:round;stroke-width:0.5px;font-family:Poppins-Regular, Poppins;letter-spacing:0.2em;}.cls-1,.cls-4{fill:#8cc63f;}.cls-2{letter-spacing:0.19em;}.cls-3{letter-spacing:0.19em;}.cls-5{fill:#006837;}.cls-6{fill:#39b54a;}.cls-7{fill:#009245;}</style></defs><title>Flamingo logo</title><text class="cls-1" transform="translate(-0.28 16.73)">G<tspan class="cls-2" x="20.32" y="0">R</tspan><tspan class="cls-3" x="36.96" y="0">EE</tspan><tspan x="65.98" y="0">N</tspan></text><polygon class="cls-4" points="62.4 59.9 95.67 59.9 79.04 21.76 62.4 59.9"/><circle class="cls-4" cx="254.27" cy="40.78" r="19.01"/><path class="cls-5" d="M212.44,40.78h19a19,19,0,0,1-19,19"/><path class="cls-5" d="M189.5,40.78c0-10.5-6.93-19-17.43-19v38H189.5Z"/><polygon class="cls-5" points="134.47 21.76 134.47 59.79 116.67 41.41 134.47 21.76"/><polygon class="cls-5" points="76.54 59.9 95.67 59.9 85.99 37.6 76.54 59.9"/><rect class="cls-5" x="31.51" y="21.76" width="12.28" height="37.76"/><rect class="cls-5" x="13.3" y="21.76" width="14.26" height="12.28"/><path class="cls-5" d="M254.05,21.87a19,19,0,0,1,.44,38"/><path class="cls-4" d="M193.45,40.78a19,19,0,0,1,19-19v38A19,19,0,0,1,193.45,40.78Z"/><rect class="cls-4" x="138.42" y="21.76" width="12.28" height="38.02"/><polygon class="cls-6" points="154.65 21.76 154.65 59.79 189.5 59.79 154.65 21.76"/><polygon class="cls-6" points="99.62 21.76 99.62 59.79 134.47 59.79 99.62 21.76"/><polygon class="cls-6" points="31.52 30.41 31.52 59.79 58.46 59.79 31.52 30.41"/><circle class="cls-7" cx="13.3" cy="41.3" r="5.94"/><rect class="cls-4" x="1.03" y="21.76" width="12.28" height="37.99"/></svg>