
<svg xmlns="http://www.w3.org/2000/svg" version="1.1" xmlns:xlink="http://www.w3.org/1999/xlink" preserveAspectRatio="none" x="0px" y="0px" width="800px" height="600px" viewBox="0 0 800 600">
<defs>
<image id="Flamingo_logo_38_png" x="0" y="0" width="2501" height="2501" xlink:href="./images/Flamingo_logo_38_png.png"/>

<image id="Flamingo_logo_39_png" x="0" y="0" width="2501" height="2501" xlink:href="./images/Flamingo_logo_39_png.png"/>

<image id="Flamingo_logo_40_png" x="0" y="0" width="2500" height="2501" xlink:href="./images/Flamingo_logo_40_png.png"/>

<image id="Flamingo_logo_37_png" x="0" y="0" width="2501" height="2501" xlink:href="./images/Flamingo_logo_37_png.png"/>

<image id="Flamingo_logo_48_png" x="0" y="0" width="2501" height="2501" xlink:href="./images/Flamingo_logo_48_png.png"/>

<image id="Flamingo_logo_49_png" x="0" y="0" width="2500" height="2501" xlink:href="./images/Flamingo_logo_49_png.png"/>

<image id="Flamingo_logo_50_png" x="0" y="0" width="2501" height="2501" xlink:href="./images/Flamingo_logo_50_png.png"/>

<image id="Flamingo_logo_44_png" x="0" y="0" width="2501" height="2501" xlink:href="./images/Flamingo_logo_44_png.png"/>

<image id="Flamingo_logo_45_png" x="0" y="0" width="2501" height="2501" xlink:href="./images/Flamingo_logo_45_png.png"/>

<image id="Flamingo_logo_46_png" x="0" y="0" width="2500" height="2501" xlink:href="./images/Flamingo_logo_46_png.png"/>

<image id="Flamingo_logo_31_png" x="0" y="0" width="2085" height="2084" xlink:href="./images/Flamingo_logo_31_png.png"/>

<image id="Flamingo_logo_41_png" x="0" y="0" width="2501" height="2501" xlink:href="./images/Flamingo_logo_41_png.png"/>

<image id="Flamingo_logo_43_png" x="0" y="0" width="2500" height="2501" xlink:href="./images/Flamingo_logo_43_png.png"/>

<image id="Flamingo_logo_42_png" x="0" y="0" width="2501" height="2501" xlink:href="./images/Flamingo_logo_42_png.png"/>

<image id="Flamingo_logo_51_png" x="0" y="0" width="2501" height="2501" xlink:href="./images/Flamingo_logo_51_png.png"/>
</defs>

<g transform="matrix( 1, 0, 0, 1, 313,570) ">
<g transform="matrix( 0.1199493408203125, 0, 0, 0.1199493408203125, -150,-150) ">
<use xlink:href="#Flamingo_logo_38_png"/>
</g>
</g>

<g transform="matrix( 1, 0, 0, 1, 427.95,562.95) ">
<g transform="matrix( 0.1173095703125, 0.0249176025390625, -0.0249176025390625, 0.1173095703125, -115.55,-177.85) ">
<use xlink:href="#Flamingo_logo_39_png"/>
</g>
</g>

<g transform="matrix( 1, 0, 0, 1, 476,525.05) ">
<g transform="matrix( 0.1199951171875, 0, 0, 0.1199951171875, -150,-150.05) ">
<use xlink:href="#Flamingo_logo_40_png"/>
</g>
</g>

<g transform="matrix( 0.1199493408203125, 0, 0, 0.1199493408203125, 236,58) ">
<use xlink:href="#Flamingo_logo_37_png"/>
</g>

<g transform="matrix( 0.1199493408203125, 0, 0, 0.1199493408203125, 370,222) ">
<use xlink:href="#Flamingo_logo_48_png"/>
</g>

<g transform="matrix( 0.1199951171875, 0, 0, 0.1199951171875, 109,217) ">
<use xlink:href="#Flamingo_logo_49_png"/>
</g>

<g transform="matrix( 0.1199493408203125, 0, 0, 0.1199493408203125, 228,289) ">
<use xlink:href="#Flamingo_logo_50_png"/>
</g>

<g transform="matrix( 1, 0, 0, 1, 197.05,216) ">
<g transform="matrix( 0.1199493408203125, 0, 0, 0.1199493408203125, -150,-150) ">
<use xlink:href="#Flamingo_logo_44_png"/>
</g>
</g>

<g transform="matrix( 1, 0, 0, 1, 520.05,205) ">
<g transform="matrix( 0.1199493408203125, 0, 0, 0.1199493408203125, -150,-150) ">
<use xlink:href="#Flamingo_logo_45_png"/>
</g>
</g>

<g transform="matrix( 1, 0, 0, 1, 251.95,263.05) ">
<g transform="matrix( 0.1199951171875, 0, 0, 0.1199951171875, -150,-150.05) ">
<use xlink:href="#Flamingo_logo_46_png"/>
</g>
</g>

<g transform="matrix( 1, 0, 0, 1, 397.05,311.95) ">
<g transform="matrix( -0.0335693359375, 0, 0, 0.0335540771484375, 35,-34.95) ">
<use xlink:href="#Flamingo_logo_31_png"/>
</g>
</g>

<g transform="matrix( 0.1199493408203125, 0, 0, 0.1199493408203125, 114,-40) ">
<use xlink:href="#Flamingo_logo_41_png"/>
</g>

<g transform="matrix( 1, 0, 0, 1, 507,123.05) ">
<g transform="matrix( 0.1199951171875, 0, 0, 0.1199951171875, -150,-150.05) ">
<use xlink:href="#Flamingo_logo_43_png"/>
</g>
</g>

<g transform="matrix( 0.1199493408203125, 0, 0, 0.1199493408203125, 309,-57) ">
<use xlink:href="#Flamingo_logo_42_png"/>
</g>

<g transform="matrix( 1, 0, 0, 1, 386.05,110) ">
<g transform="matrix( 0.1199493408203125, 0, 0, 0.1199493408203125, -150,-150) ">
<use xlink:href="#Flamingo_logo_51_png"/>
</g>
</g>
</svg>
