<?xml version="1.0" standalone="no"?>
<!DOCTYPE svg PUBLIC "-//W3C//DTD SVG 20010904//EN"
 "http://www.w3.org/TR/2001/REC-SVG-20010904/DTD/svg10.dtd">
<svg version="1.0" xmlns="http://www.w3.org/2000/svg"
 width="260.000000pt" height="260.000000pt" viewBox="0 0 260.000000 260.000000"
 preserveAspectRatio="xMidYMid meet">
<metadata>
Created by potrace 1.11, written by Peter Selinger 2001-2013
</metadata>
<g transform="translate(0.000000,260.000000) scale(0.100000,-0.100000)"
fill="#000000" stroke="none">
<path d="M1940 2596 c0 -7 20 -106 50 -246 17 -80 40 -188 50 -240 37 -184 49
-233 57 -240 9 -9 474 -160 491 -160 9 0 12 116 12 445 l0 445 -330 0 c-181 0
-330 -2 -330 -4z"/>
<path d="M1539 2556 c-2 -2 -31 -7 -64 -10 -33 -3 -69 -8 -80 -10 -11 -3 -29
-5 -40 -5 -25 -1 -150 -175 -148 -206 0 -11 4 -47 8 -80 5 -33 9 -67 10 -75 1
-14 110 -182 253 -389 49 -71 63 -98 55 -109 -23 -38 -37 -35 -133 23 -116 70
-140 81 -208 89 -71 8 -125 16 -137 20 -5 2 -75 -47 -155 -108 l-145 -112 -56
-139 c-31 -77 -55 -141 -54 -142 0 -1 37 7 80 17 44 11 89 20 100 20 10 0 104
-34 207 -76 l188 -77 -56 -106 c-31 -58 -59 -109 -63 -114 -8 -8 -99 -14 -496
-33 -71 -3 -157 -7 -190 -9 -33 -2 -127 -7 -210 -11 -82 -3 -161 -7 -175 -8
l-25 -1 -3 -452 -2 -453 1300 0 1300 0 0 516 0 516 -142 -6 c-79 -4 -177 -9
-218 -11 -41 -2 -133 -7 -205 -10 -71 -4 -157 -8 -190 -10 -33 -2 -134 -6
-225 -10 -90 -4 -168 -9 -172 -11 -4 -3 -8 14 -9 38 -1 24 -3 75 -5 114 l-4
70 87 79 c198 179 191 170 198 255 3 41 8 91 10 110 2 19 7 62 10 95 l6 60
-83 100 c-46 55 -89 108 -96 117 -12 15 -7 20 40 44 29 14 54 27 55 28 1 1 5
29 8 61 9 98 13 119 30 159 l16 38 -77 101 c-91 120 -89 118 -95 113z m21
-360 c10 -38 9 -48 -10 -89 -12 -26 -24 -47 -26 -47 -1 0 -35 39 -74 86 -43
52 -69 92 -66 101 4 8 9 32 12 54 l6 38 73 -50 c62 -44 75 -57 85 -93z m-202
-1075 c5 -9 10 -46 11 -83 l2 -68 -53 -1 c-29 0 -69 -2 -88 -4 -50 -3 -53 1
-27 43 13 20 28 48 35 62 12 24 28 51 45 77 10 16 64 -3 75 -26z"/>
</g>
</svg>
